<svg width="120" height="34" viewBox="0 0 120 34" fill="none" xmlns="http://www.w3.org/2000/svg">
<g clip-path="url(#clip0_58_468)">
<path d="M16.9421 14.9024V12.9851H23.9876V32.9561H16.9486V30.7489C16.6315 31.0702 16.4137 31.2945 16.1903 31.5142C14.6875 32.9958 12.8288 33.5959 10.7634 33.6023C8.72387 33.6106 6.83363 33.078 5.12788 31.9305C3.06984 30.5458 1.70338 28.6451 1.05538 26.2819C-0.0153521 22.3826 0.579809 18.7621 3.23764 15.6271C4.99902 13.5528 7.31662 12.4977 10.0403 12.3352C11.9583 12.2207 13.7623 12.5955 15.3819 13.6553C15.9047 13.9996 16.3655 14.4372 16.9421 14.9024ZM7.9331 22.9097C7.94052 25.4945 9.91049 27.505 12.47 27.5254C15.0296 27.5457 17.1442 25.4788 17.1572 22.9799C17.1692 20.7431 15.2642 18.343 12.4654 18.3799C9.96611 18.4122 7.92569 20.4219 7.9331 22.9097Z" fill="#0F375B"/>
<path d="M56.8021 24.1337H41.8767C41.7062 26.5052 42.8409 28.3386 45.0982 28.6718C46.5129 28.8805 47.8423 28.7374 48.9603 27.7339C49.0864 27.6204 49.2486 27.517 49.3135 27.373C49.5378 26.88 49.9235 26.8339 50.4083 26.8403C52.2457 26.8653 54.085 26.8505 55.9233 26.8505H56.5008C56.4081 27.1681 56.3395 27.4468 56.2357 27.7099C54.8451 31.2123 52.1855 33.0484 48.507 33.5552C46.2431 33.8672 44.0034 33.7906 41.823 33.0696C37.7755 31.7311 35.3977 28.9405 34.7932 24.7421C34.4066 22.0594 34.7932 19.4645 36.1708 17.0801C37.3305 15.0732 39.0622 13.7208 41.2297 12.9703C44.4678 11.8496 47.719 11.8625 50.9108 13.1734C53.5065 14.2396 55.1752 16.192 56.0911 18.8045C56.6816 20.5114 56.8281 22.2782 56.8021 24.1337ZM42.0622 20.0221H50.1219C49.8428 18.0937 48.0397 16.709 45.9075 16.7431C43.8059 16.78 42.2828 18.0651 42.0612 20.0221H42.0622Z" fill="#0F375B"/>
<path d="M26.1875 32.9665V0.548828H33.22V32.9665H26.1875Z" fill="#0F375B"/>
<path d="M84.3473 18.8093V32.9563H77.2573V18.8323H74.9397V12.9686H77.2378V6.91748H84.3297V12.9178H89.4785C89.3858 13.0822 89.3116 13.2234 89.2301 13.3609C88.3057 14.8778 87.7725 16.5989 87.6782 18.3708C87.6578 18.752 87.5261 18.8693 87.1488 18.8508C86.3933 18.8148 85.6359 18.8222 84.8794 18.813C84.7144 18.8074 84.5494 18.8093 84.3473 18.8093Z" fill="#0F375B"/>
<path d="M73.2451 19.2157C72.6008 19.0403 72.0316 18.8547 71.4485 18.732C70.4625 18.5162 69.438 18.5508 68.469 18.8326C66.4666 19.4188 65.6443 20.9401 65.3476 22.8399C65.2698 23.4193 65.236 24.0038 65.2466 24.5883C65.2364 27.2045 65.2419 29.8197 65.2419 32.4349V32.9593H58.1862V12.9781H65.2234V16.0706L65.3161 16.1167C65.4088 15.9967 65.5015 15.8786 65.5942 15.7539C67.3788 13.2356 69.8697 12.2987 72.878 12.5414C73.0068 12.5516 73.2284 12.7261 73.2293 12.8295C73.2497 14.9554 73.2451 17.0731 73.2451 19.2157Z" fill="#0F375B"/>
<path d="M108.644 11.5939C109.234 10.4418 109.805 9.32388 110.42 8.12012C111.197 8.48937 111.967 8.80416 112.68 9.21495C115.88 11.0612 118.068 13.7171 118.835 17.3588C119.677 21.3615 118.907 25.0448 116.273 28.2647C114.739 30.1405 112.768 31.3867 110.518 32.2342C110.279 32.3265 110.109 32.3726 109.961 32.0689C109.461 31.0313 108.929 30.0094 108.385 28.9386C112.295 27.3868 114.725 24.6811 114.806 20.3655C114.891 16.0323 112.543 13.2592 108.644 11.5939Z" fill="#E65C39"/>
<path d="M97.7181 8.28076C97.7969 8.41739 97.8701 8.5337 97.9322 8.65555C98.4375 9.65531 98.9409 10.6569 99.4572 11.6825C95.7416 13.4134 93.424 16.1246 93.5242 20.3415C93.6261 24.4956 95.8418 27.2742 99.7122 28.8805C99.1318 30.0288 98.554 31.172 97.9786 32.3099C93.284 30.8043 89.5861 26.5431 89.2097 20.984C88.7842 14.7067 92.8715 10.0236 97.7181 8.28076Z" fill="#E65C39"/>
<path d="M104.185 24.2244C101.901 24.2337 100.144 22.4862 100.138 20.1996C100.13 17.961 101.89 16.2301 104.178 16.2236C106.384 16.2181 108.257 18.0007 108.223 20.1691C108.195 22.2554 106.673 24.2226 104.185 24.2244Z" fill="#E65C39"/>
<path d="M107.365 26.9262L106.716 25.6486C106.874 25.5516 107.01 25.4639 107.152 25.3827C108.018 24.8998 108.751 24.211 109.285 23.3777C109.819 22.5444 110.138 21.5925 110.213 20.6068C110.288 19.6211 110.117 18.6322 109.715 17.7282C109.313 16.8243 108.693 16.0333 107.91 15.4258C107.838 15.3686 107.759 15.3187 107.687 15.2615C107.478 15.0944 107.077 14.8922 107.1 14.763C107.169 14.3836 107.395 14.0291 107.588 13.682C107.618 13.6303 107.822 13.6266 107.917 13.6672C110.309 14.6827 111.898 16.3766 112.325 18.9937C112.725 21.4511 112.071 23.5909 110.234 25.3218C109.429 26.0886 108.442 26.6405 107.365 26.9262Z" fill="#E65C39"/>
<path d="M101.413 25.5418C101.213 25.935 101.035 26.3246 100.815 26.6883C100.767 26.7695 100.555 26.8231 100.45 26.7898C98.1102 26.0375 96.1755 23.5201 95.952 21.072C95.7666 19.0272 96.2079 17.2004 97.5883 15.643C98.2928 14.8491 99.1559 14.2657 100.11 13.8032C100.381 13.6712 100.528 13.7109 100.645 13.9878C100.775 14.298 101.076 14.6128 101.041 14.8934C101.013 15.1187 100.597 15.2978 100.351 15.4962C99.5963 16.1006 98.9997 16.8778 98.6119 17.7614C98.2241 18.6451 98.0567 19.609 98.1239 20.571C98.1911 21.533 98.4909 22.4645 98.9978 23.2862C99.5047 24.1078 100.204 24.7952 101.035 25.2898C101.151 25.359 101.261 25.4402 101.413 25.5418Z" fill="#E65C39"/>
</g>
<defs>
<clipPath id="clip0_58_468">
<rect width="118.609" height="33.1801" fill="white" transform="translate(0.552002 0.548828)"/>
</clipPath>
</defs>
</svg>
